<svg xmlns="http://www.w3.org/2000/svg" width="420" height="64" viewBox="0 0 420 64" role="img" aria-labelledby="title desc">
  <title id="title">README made with beautify-github-readme</title>
  <desc id="desc">A compact oil-icon styled credit using its warm canvas and colourful icon-grid motif.</desc>
  <rect x=".5" y=".5" width="419" height="63" rx="14" fill="#F5F2EB" stroke="#DED9CF"/>
  <path d="M16 0V64M32 0V64" stroke="#24302F" stroke-opacity=".045"/>
  <g transform="translate(18 15) rotate(-4 17 17)">
    <rect width="34" height="34" rx="8" fill="#FFFFFF" stroke="#E7E1D6"/>
    <rect x="6" y="6" width="9" height="9" rx="3" fill="#1F7779"/>
    <rect x="19" y="6" width="9" height="9" rx="3" fill="#F2A052"/>
    <rect x="6" y="19" width="9" height="9" rx="3" fill="#6F60D8"/>
    <rect x="19" y="19" width="9" height="9" rx="3" fill="#F6C84C"/>
  </g>
  <text x="64" y="25" fill="#7A8581" font-family="-apple-system,BlinkMacSystemFont,'Segoe UI',sans-serif" font-size="10" font-weight="700" letter-spacing="1.7">README MADE WITH</text>
  <rect x="64" y="35" width="180" height="13" rx="2" fill="#B9E0D9" fill-opacity=".72"/>
  <text x="64" y="47" fill="#24302F" font-family="-apple-system,BlinkMacSystemFont,'Segoe UI',sans-serif" font-size="15" font-weight="750">beautify-github-readme</text>
  <circle cx="389" cy="32" r="14" fill="#FFFFFF" stroke="#DED9CF"/>
  <path d="M384 37l10-10M387 27h7v7" fill="none" stroke="#E88E49" stroke-width="1.9" stroke-linecap="round" stroke-linejoin="round"/>
</svg>
